<?xml version="1.0" encoding="UTF-8"?>
<svg id="Layer_2" data-name="Layer 2" xmlns="http://www.w3.org/2000/svg" viewBox="0 0 384.45 125.87">
  <defs>
    <style>
      .cls-1 {
        fill: #000;
        stroke-width: 0px;
      }
    </style>
  </defs>
  <g id="Layer_1-2" data-name="Layer 1">
    <g>
      <path class="cls-1" d="M18.78,19.74c-.42-2.88-1.98-3.9-5.52-3.9-2.94,0-4.62.72-4.62,2.46s1.62,2.46,4.8,3.36c3.36.96,6.54,1.62,8.82,2.52,3.12,1.26,4.86,3.3,4.86,7.14,0,6.12-4.5,9.78-12.9,9.78C5.16,41.1.12,36.84,0,30.84h8.04c0,2.76,2.34,4.38,6.12,4.38,2.76,0,5.22-.84,5.22-3.06,0-2.1-2.22-2.76-4.74-3.36-4.98-1.2-7.74-2.04-9.84-3.36-2.76-1.74-3.72-4.02-3.72-6.66,0-4.98,3.42-8.76,12.42-8.76,8.52,0,12.36,3.36,12.78,9.72h-7.5Z"/>
      <path class="cls-1" d="M28.68,25.56c0-9.36,5.82-15.54,15.18-15.54s15,6.12,15,15.54-5.82,15.54-15,15.54-15.18-6.36-15.18-15.54ZM51,25.56c0-6-2.4-8.94-7.14-8.94s-7.14,2.94-7.14,8.94,2.4,9,7.14,9,7.14-3,7.14-9Z"/>
      <path class="cls-1" d="M60.06,46.68c3.06-.78,4.56-2.58,4.62-6.36h-4.62v-8.1h8.28v6.12c0,6.78-2.04,10.02-8.28,11.34v-3Z"/>
      <path class="cls-1" d="M110.28,40.32l-4.68-17.16-4.68,17.16h-7.98l-8.4-29.52h8.22l4.8,18.96,4.08-18.96h7.92l4.62,18.96,4.5-18.96h8.04l-8.46,29.52h-7.98Z"/>
      <path class="cls-1" d="M147.66,40.32v-18.3c0-4.44-1.5-5.82-5.04-5.82-3.9,0-6.06,3.24-6.06,7.2v16.92h-7.8V0h7.8v14.64c1.14-2.64,4.74-4.62,8.7-4.62,6.06,0,10.26,3.54,10.26,9.42v20.88h-7.86Z"/>
      <path class="cls-1" d="M177.42,40.32c-.24-.72-.42-1.74-.48-2.64-1.86,2.04-4.98,3.42-8.94,3.42-6.72,0-9.84-3.3-9.84-8.1,0-8.52,5.7-9.48,13.56-10.56,3.9-.54,4.98-1.32,4.98-3.36,0-1.92-1.92-3.06-4.98-3.06-3.54,0-4.98,1.74-5.34,4.38h-7.26c.12-6.12,3.48-10.38,12.96-10.38s12.6,4.2,12.6,11.64v18.66h-7.26ZM176.88,25.86c-.78.78-2.16,1.2-5.04,1.74-4.44.84-5.88,2.1-5.88,4.62,0,2.22,1.32,3.3,3.78,3.3,4.02,0,7.02-2.94,7.08-6.42l.06-3.24Z"/>
      <path class="cls-1" d="M204.84,20.88h7.26v8.4c0,6.24-3.6,11.82-11.94,11.82s-12.06-5.52-12.06-11.88V2.82h7.68v7.98h16.32v5.52h-16.32v12.12c0,3.72,1.32,5.88,4.5,5.88s4.56-2.1,4.56-5.76v-7.68Z"/>
      <path class="cls-1" d="M229.92,7.26V0h7.8v7.26h-7.8ZM229.92,40.32V10.8h7.8v29.52h-7.8Z"/>
      <path class="cls-1" d="M259.01,19.74c-.42-2.88-1.98-3.9-5.52-3.9-2.94,0-4.62.72-4.62,2.46s1.62,2.46,4.8,3.36c3.36.96,6.54,1.62,8.82,2.52,3.12,1.26,4.86,3.3,4.86,7.14,0,6.12-4.5,9.78-12.9,9.78-9.06,0-14.1-4.26-14.22-10.26h8.04c0,2.76,2.34,4.38,6.12,4.38,2.76,0,5.22-.84,5.22-3.06,0-2.1-2.22-2.76-4.74-3.36-4.98-1.2-7.74-2.04-9.84-3.36-2.76-1.74-3.72-4.02-3.72-6.66,0-4.98,3.42-8.76,12.42-8.76,8.52,0,12.36,3.36,12.78,9.72h-7.5Z"/>
    </g>
    <path class="cls-1" d="M352.19,109.11c0-6.45,1.11-9.88,4.89-13.14,4.56-3.92,11.9-5.06,11.9-11.27,0-5.31-4.67-7.18-10.12-7.18-7.9,0-10.12,3.43-10.9,8.9h-14.35c0-10.78,10.01-17.55,24.91-17.55,16.02,0,25.92,4.49,25.92,15.27,0,7.02-4,9.96-11.23,13.96-6.56,3.59-7.45,6.2-7.45,11.02h-13.57Z"/>
    <rect class="cls-1" x="351.75" y="114.18" width="15.01" height="10.69"/>
    <path class="cls-1" d="M4,70.05h52.64c3.66,0,6.77,1.28,9.35,3.84,2.58,2.56,3.87,5.65,3.87,9.28v22.43l-12.86-.21-.36-11.7-41.48,12.44v6.63h54.7v13.12H0v-19.75c0-3.63,1.42-6.72,4-9.28s9-3.84,9-3.84l36.47-10.23v.4H4v-13.12Z"/>
    <path class="cls-1" d="M134.96,125.87h-51.68c-3.88,0-7.19-1.28-9.93-3.85-2.74-2.57-4.11-5.67-4.11-9.31v-29.68c0-3.59,1.38-6.69,4.14-9.28s6.06-3.89,9.89-3.89h51.68c3.83,0,7.13,1.3,9.89,3.89s4.14,5.68,4.14,9.28v29.68c0,3.64-1.37,6.74-4.11,9.31-2.74,2.57-6.05,3.85-9.93,3.85ZM134,112.71v-29.68h-50v29.68h50Z"/>
    <path class="cls-1" d="M215.96,124.87h-51.68c-3.88,0-7.19-1.28-9.93-3.85-2.74-2.57-4.11-5.67-4.11-9.31v-29.68c0-3.59,1.38-6.69,4.14-9.28s6.06-3.89,9.89-3.89h51.68c3.83,0,7.13,1.3,9.89,3.89s4.14,5.68,4.14,9.28v29.68c0,3.64-1.37,6.74-4.11,9.31-2.74,2.57-6.05,3.85-9.93,3.85ZM215,111.71v-29.68h-50v29.68h50Z"/>
    <path class="cls-1" d="M294.96,124.87h-51.68c-3.88,0-7.19-1.28-9.93-3.85-2.74-2.57-4.11-5.67-4.11-9.31v-29.68c0-3.59,1.38-6.69,4.14-9.28s6.06-3.89,9.89-3.89h51.68c3.83,0,7.13,1.3,9.89,3.89s4.14,5.68,4.14,9.28v29.68c0,3.64-1.37,6.74-4.11,9.31-2.74,2.57-6.05,3.85-9.93,3.85ZM294,111.71v-29.68h-50v29.68h50Z"/>
    <path class="cls-1" d="M213.96,124.87h-51.68c-3.88,0-7.19-1.28-9.93-3.85-2.74-2.57-4.11-5.67-4.11-9.31v-29.68c0-3.59,1.38-6.69,4.14-9.28s6.06-3.89,9.89-3.89h51.68c3.83,0,7.13,1.3,9.89,3.89s4.14,5.68,4.14,9.28v29.68c0,3.64-1.37,6.74-4.11,9.31-2.74,2.57-6.05,3.85-9.93,3.85ZM213,111.71v-29.68h-50v29.68h50Z"/>
  </g>
</svg>